<svg xmlns="http://www.w3.org/2000/svg" width="900" height="300" viewBox="0 0 900 300">
<rect width="100%" height="100%" fill="#ffffff"/>
<text x="64" y="26" font-size="18" font-family="SimSun" font-weight="700">Task 2 运行结果：布林带</text>
<line x1="64" y1="42" x2="876" y2="42" stroke="#d8dee6"/><text x="8" y="46" font-size="14" font-family="SimSun">13.18</text><line x1="64" y1="96" x2="876" y2="96" stroke="#d8dee6"/><text x="8" y="100" font-size="14" font-family="SimSun">12.36</text><line x1="64" y1="150" x2="876" y2="150" stroke="#d8dee6"/><text x="8" y="154" font-size="14" font-family="SimSun">11.53</text><line x1="64" y1="204" x2="876" y2="204" stroke="#d8dee6"/><text x="8" y="208" font-size="14" font-family="SimSun">10.71</text><line x1="64" y1="258" x2="876" y2="258" stroke="#d8dee6"/><text x="8" y="262" font-size="14" font-family="SimSun">9.89</text>
<path d="M64.00,80.04 L67.37,68.24 L70.74,74.14 L74.11,64.30 L77.48,42.00 L80.85,59.71 L84.22,55.12 L87.59,71.52 L90.95,77.42 L94.32,80.70 L97.69,73.48 L101.06,79.39 L104.43,87.26 L107.80,84.63 L111.17,96.44 L114.54,96.44 L117.91,89.23 L121.28,97.10 L124.65,87.26 L128.02,104.31 L131.39,101.03 L134.76,99.72 L138.12,88.57 L141.49,89.23 L144.86,88.57 L148.23,93.16 L151.60,99.72 L154.97,97.75 L158.34,102.34 L161.71,106.28 L165.08,114.15 L168.45,114.15 L171.82,115.46 L175.19,114.81 L178.56,109.56 L181.93,115.46 L185.29,89.88 L188.66,95.78 L192.03,115.46 L195.40,114.15 L198.77,116.12 L202.14,126.61 L205.51,120.71 L208.88,135.80 L212.25,136.45 L215.62,137.76 L218.99,139.08 L222.36,135.80 L225.73,134.48 L229.10,129.24 L232.46,137.76 L235.83,142.35 L239.20,143.01 L242.57,143.01 L245.94,158.10 L249.31,155.47 L252.68,160.06 L256.05,150.88 L259.42,154.82 L262.79,158.75 L266.16,158.75 L269.53,160.72 L272.90,162.69 L276.27,158.75 L279.63,156.78 L283.00,158.75 L286.37,147.60 L289.74,158.75 L293.11,149.57 L296.48,158.75 L299.85,157.44 L303.22,156.78 L306.59,150.88 L309.96,143.67 L313.33,148.26 L316.70,150.88 L320.07,154.16 L323.44,159.41 L326.80,160.06 L330.17,164.00 L333.54,156.78 L336.91,146.29 L340.28,150.88 L343.65,151.54 L347.02,148.91 L350.39,143.67 L353.76,141.04 L357.13,140.39 L360.50,139.08 L363.87,135.80 L367.24,141.04 L370.61,146.29 L373.98,132.52 L377.34,129.24 L380.71,139.73 L384.08,145.63 L387.45,132.52 L390.82,139.73 L394.19,138.42 L397.56,144.98 L400.93,139.73 L404.30,143.01 L407.67,148.91 L411.04,152.85 L414.41,150.23 L417.78,150.88 L421.15,156.78 L424.51,163.34 L427.88,160.72 L431.25,162.03 L434.62,151.54 L437.99,153.51 L441.36,150.23 L444.73,143.01 L448.10,144.32 L451.47,150.88 L454.84,148.26 L458.21,149.57 L461.58,148.26 L464.95,149.57 L468.32,148.26 L471.68,153.51 L475.05,158.10 L478.42,152.19 L481.79,141.04 L485.16,143.01 L488.53,151.54 L491.90,154.82 L495.27,153.51 L498.64,154.16 L502.01,161.38 L505.38,164.66 L508.75,172.53 L512.12,177.12 L515.49,174.49 L518.85,180.40 L522.22,180.40 L525.59,185.64 L528.96,187.61 L532.33,188.92 L535.70,195.48 L539.07,187.61 L542.44,196.14 L545.81,194.17 L549.18,195.48 L552.55,186.96 L555.92,179.09 L559.29,181.71 L562.66,180.40 L566.02,181.05 L569.39,180.40 L572.76,187.61 L576.13,190.89 L579.50,190.89 L582.87,194.17 L586.24,193.52 L589.61,191.55 L592.98,194.83 L596.35,192.86 L599.72,204.01 L603.09,197.45 L606.46,196.80 L609.83,200.73 L613.20,197.45 L616.56,192.20 L619.93,188.92 L623.30,189.58 L626.67,190.24 L630.04,183.02 L633.41,187.61 L636.78,192.86 L640.15,200.07 L643.52,221.06 L646.89,192.86 L650.26,188.92 L653.63,188.92 L657.00,183.68 L660.37,185.64 L663.73,179.74 L667.10,175.15 L670.47,167.28 L673.84,177.12 L677.21,183.02 L680.58,170.56 L683.95,178.43 L687.32,179.09 L690.69,180.40 L694.06,173.84 L697.43,171.21 L700.80,179.09 L704.17,184.33 L707.54,181.05 L710.90,179.74 L714.27,186.30 L717.64,184.99 L721.01,184.99 L724.38,160.06 L727.75,154.82 L731.12,150.88 L734.49,152.85 L737.86,161.38 L741.23,160.72 L744.60,165.31 L747.97,166.62 L751.34,168.59 L754.71,175.81 L758.07,181.71 L761.44,185.64 L764.81,194.17 L768.18,194.17 L771.55,200.07 L774.92,204.67 L778.29,205.98 L781.66,205.98 L785.03,198.76 L788.40,200.73 L791.77,207.29 L795.14,189.58 L798.51,185.64 L801.88,179.74 L805.24,185.64 L808.61,196.80 L811.98,186.30 L815.35,183.02 L818.72,176.46 L822.09,164.00 L825.46,165.31 L828.83,169.25 L832.20,181.05 L835.57,188.92 L838.94,199.42 L842.31,216.47 L845.68,207.95 L849.05,204.01 L852.41,217.13 L855.78,223.03 L859.15,235.49 L862.52,234.84 L865.89,247.30 L869.26,240.09 L872.63,232.21 L876.00,231.56 " fill="none" stroke="#17212b" stroke-width="2"/><path d="M128.02,48.09 L131.39,47.58 L134.76,48.43 L138.12,49.16 L141.49,51.28 L144.86,59.75 L148.23,64.11 L151.60,70.99 L154.97,73.89 L158.34,75.53 L161.71,76.49 L165.08,78.67 L168.45,80.08 L171.82,80.26 L175.19,81.54 L178.56,81.79 L181.93,81.74 L185.29,81.85 L188.66,81.72 L192.03,83.33 L195.40,83.21 L198.77,83.23 L202.14,82.49 L205.51,84.53 L208.88,85.11 L212.25,86.71 L215.62,88.01 L218.99,88.65 L222.36,90.57 L225.73,92.22 L229.10,93.74 L232.46,94.09 L235.83,94.34 L239.20,94.70 L242.57,95.42 L245.94,95.78 L249.31,96.31 L252.68,102.90 L256.05,110.24 L259.42,112.95 L262.79,116.33 L266.16,120.07 L269.53,121.81 L272.90,125.43 L276.27,126.59 L279.63,127.95 L283.00,129.24 L286.37,130.23 L289.74,132.24 L293.11,134.61 L296.48,139.41 L299.85,142.36 L303.22,144.44 L306.59,146.16 L309.96,146.36 L313.33,145.37 L316.70,144.95 L320.07,144.90 L323.44,145.32 L326.80,145.37 L330.17,145.07 L333.54,145.04 L336.91,143.83 L340.28,143.68 L343.65,143.44 L347.02,142.90 L350.39,141.58 L353.76,140.31 L357.13,138.65 L360.50,137.03 L363.87,134.85 L367.24,133.95 L370.61,133.80 L373.98,131.35 L377.34,128.81 L380.71,128.12 L384.08,127.96 L387.45,126.31 L390.82,126.36 L394.19,126.66 L397.56,128.70 L400.93,129.59 L404.30,129.61 L407.67,129.82 L411.04,129.63 L414.41,129.51 L417.78,129.17 L421.15,128.31 L424.51,126.80 L427.88,126.44 L431.25,126.73 L434.62,127.25 L437.99,127.36 L441.36,129.35 L444.73,131.93 L448.10,132.52 L451.47,132.82 L454.84,135.45 L458.21,136.69 L461.58,138.26 L464.95,138.75 L468.32,140.22 L471.68,141.39 L475.05,141.60 L478.42,141.57 L481.79,140.06 L485.16,139.06 L488.53,139.05 L491.90,139.83 L495.27,140.38 L498.64,141.33 L502.01,140.50 L505.38,139.33 L508.75,137.17 L512.12,135.93 L515.49,135.88 L518.85,134.65 L522.22,134.39 L525.59,133.82 L528.96,133.86 L532.33,134.19 L535.70,134.56 L539.07,135.59 L542.44,135.69 L545.81,137.31 L549.18,141.73 L552.55,147.00 L555.92,150.76 L559.29,154.31 L562.66,158.70 L566.02,163.76 L569.39,167.36 L572.76,170.95 L576.13,172.81 L579.50,173.92 L582.87,175.71 L586.24,176.51 L589.61,177.50 L592.98,177.71 L596.35,177.86 L599.72,176.91 L603.09,176.81 L606.46,177.00 L609.83,176.71 L613.20,176.64 L616.56,176.62 L619.93,176.80 L623.30,178.37 L626.67,179.55 L630.04,180.13 L633.41,181.35 L636.78,183.43 L640.15,183.87 L643.52,179.69 L646.89,179.87 L650.26,179.38 L653.63,178.94 L657.00,177.88 L660.37,177.01 L663.73,175.27 L667.10,172.95 L670.47,168.86 L673.84,167.39 L677.21,167.02 L680.58,164.79 L683.95,163.94 L687.32,163.28 L690.69,162.77 L694.06,161.54 L697.43,160.24 L700.80,159.79 L704.17,159.75 L707.54,160.15 L710.90,167.34 L714.27,168.07 L717.64,168.38 L721.01,168.74 L724.38,164.85 L727.75,160.34 L731.12,155.50 L734.49,152.12 L737.86,151.32 L741.23,149.86 L744.60,149.24 L747.97,148.93 L751.34,148.61 L754.71,148.63 L758.07,148.58 L761.44,148.32 L764.81,147.54 L768.18,146.76 L771.55,145.51 L774.92,143.92 L778.29,142.61 L781.66,141.52 L785.03,141.20 L788.40,140.84 L791.77,142.47 L795.14,146.10 L798.51,150.97 L801.88,155.55 L805.24,158.98 L808.61,163.40 L811.98,166.86 L815.35,170.04 L818.72,171.89 L822.09,168.88 L825.46,165.65 L828.83,163.21 L832.20,162.39 L835.57,162.23 L838.94,162.25 L842.31,160.98 L845.68,160.84 L849.05,160.96 L852.41,159.61 L855.78,157.80 L859.15,154.59 L862.52,152.73 L865.89,150.36 L869.26,150.84 L872.63,151.96 L876.00,152.38 " fill="none" stroke="#d65a12" stroke-width="2"/><path d="M128.02,78.44 L131.39,79.49 L134.76,81.06 L138.12,81.78 L141.49,83.03 L144.86,85.36 L148.23,87.03 L151.60,89.26 L154.97,90.57 L158.34,91.82 L161.71,93.10 L165.08,95.13 L168.45,96.87 L171.82,98.28 L175.19,99.79 L178.56,100.44 L181.93,101.39 L185.29,101.43 L188.66,101.36 L192.03,102.77 L195.40,103.26 L198.77,104.02 L202.14,105.36 L205.51,106.97 L208.88,109.30 L212.25,111.69 L215.62,113.92 L218.99,115.89 L222.36,117.79 L225.73,119.40 L229.10,120.55 L232.46,121.73 L235.83,123.14 L239.20,124.51 L242.57,125.92 L245.94,128.35 L249.31,130.35 L252.68,133.86 L256.05,136.62 L259.42,138.58 L262.79,140.81 L266.16,142.94 L269.53,144.65 L272.90,146.75 L276.27,147.90 L279.63,148.91 L283.00,149.96 L286.37,150.39 L289.74,151.54 L293.11,152.29 L296.48,153.77 L299.85,154.75 L303.22,155.47 L306.59,155.87 L309.96,155.90 L313.33,155.41 L316.70,155.18 L320.07,154.88 L323.44,155.31 L326.80,155.57 L330.17,155.83 L333.54,155.74 L336.91,155.01 L340.28,154.42 L343.65,154.06 L347.02,153.67 L350.39,152.91 L353.76,152.59 L357.13,151.67 L360.50,151.14 L363.87,150.00 L367.24,149.18 L370.61,148.65 L373.98,147.73 L377.34,147.01 L380.71,146.59 L384.08,146.32 L387.45,145.24 L390.82,144.26 L394.19,143.17 L397.56,142.22 L400.93,141.37 L404.30,141.21 L407.67,141.11 L411.04,141.17 L414.41,141.24 L417.78,141.60 L421.15,142.39 L424.51,143.54 L427.88,144.62 L431.25,145.93 L434.62,146.45 L437.99,146.81 L441.36,147.70 L444.73,148.39 L448.10,148.62 L451.47,148.88 L454.84,149.67 L458.21,150.16 L461.58,150.65 L464.95,150.88 L468.32,151.31 L471.68,151.83 L475.05,152.29 L478.42,152.26 L481.79,151.80 L485.16,151.41 L488.53,151.14 L491.90,150.72 L495.27,150.36 L498.64,149.96 L502.01,150.46 L505.38,151.01 L508.75,152.13 L512.12,153.83 L515.49,155.34 L518.85,156.82 L522.22,158.42 L525.59,160.23 L528.96,162.20 L532.33,164.16 L535.70,166.52 L539.07,168.23 L542.44,170.13 L545.81,172.23 L549.18,174.95 L552.55,177.15 L555.92,178.53 L559.29,179.87 L562.66,181.22 L566.02,182.56 L569.39,183.51 L572.76,184.66 L576.13,185.58 L579.50,186.27 L582.87,187.25 L586.24,187.91 L589.61,188.47 L592.98,188.92 L596.35,189.19 L599.72,189.94 L603.09,190.04 L606.46,190.50 L609.83,190.73 L613.20,190.89 L616.56,190.73 L619.93,190.83 L623.30,191.35 L626.67,191.78 L630.04,191.91 L633.41,192.24 L636.78,192.86 L640.15,193.48 L643.52,194.99 L646.89,195.09 L650.26,194.83 L653.63,194.60 L657.00,194.20 L660.37,193.75 L663.73,193.09 L667.10,191.65 L670.47,190.14 L673.84,189.15 L677.21,188.27 L680.58,186.92 L683.95,186.24 L687.32,185.74 L690.69,185.28 L694.06,184.46 L697.43,183.87 L700.80,183.45 L704.17,183.02 L707.54,182.07 L710.90,180.00 L714.27,179.68 L717.64,179.48 L721.01,179.28 L724.38,178.10 L727.75,176.56 L731.12,175.12 L734.49,174.00 L737.86,173.71 L741.23,172.89 L744.60,172.00 L747.97,171.81 L751.34,171.31 L754.71,171.15 L758.07,171.21 L761.44,171.81 L764.81,172.95 L768.18,173.71 L771.55,174.49 L774.92,175.67 L778.29,176.99 L781.66,177.97 L785.03,178.66 L788.40,179.45 L791.77,181.81 L795.14,183.55 L798.51,185.28 L801.88,186.63 L805.24,187.84 L808.61,189.65 L811.98,190.70 L815.35,191.52 L818.72,191.91 L822.09,191.32 L825.46,190.50 L828.83,189.68 L832.20,189.02 L835.57,188.76 L838.94,188.73 L842.31,189.32 L845.68,189.42 L849.05,189.32 L852.41,190.24 L855.78,191.35 L859.15,192.76 L862.52,195.02 L865.89,198.11 L869.26,201.12 L872.63,203.45 L876.00,205.19 " fill="none" stroke="#1266d6" stroke-width="2"/><path d="M128.02,108.78 L131.39,111.39 L134.76,113.69 L138.12,114.40 L141.49,114.77 L144.86,110.96 L148.23,109.94 L151.60,107.53 L154.97,107.25 L158.34,108.10 L161.71,109.70 L165.08,111.59 L168.45,113.65 L171.82,116.29 L175.19,118.03 L178.56,119.10 L181.93,121.05 L185.29,121.00 L188.66,121.00 L192.03,122.21 L195.40,123.32 L198.77,124.80 L202.14,128.24 L205.51,129.41 L208.88,133.49 L212.25,136.67 L215.62,139.83 L218.99,143.13 L222.36,145.01 L225.73,146.57 L229.10,147.35 L232.46,149.36 L235.83,151.94 L239.20,154.33 L242.57,156.43 L245.94,160.92 L249.31,164.39 L252.68,164.82 L256.05,163.00 L259.42,164.22 L262.79,165.29 L266.16,165.82 L269.53,167.49 L272.90,168.07 L276.27,169.21 L279.63,169.88 L283.00,170.69 L286.37,170.55 L289.74,170.83 L293.11,169.98 L296.48,168.12 L299.85,167.15 L303.22,166.50 L306.59,165.57 L309.96,165.43 L313.33,165.44 L316.70,165.40 L320.07,164.86 L323.44,165.30 L326.80,165.77 L330.17,166.60 L333.54,166.43 L336.91,166.20 L340.28,165.16 L343.65,164.68 L347.02,164.44 L350.39,164.25 L353.76,164.86 L357.13,164.69 L360.50,165.26 L363.87,165.14 L367.24,164.40 L370.61,163.51 L373.98,164.12 L377.34,165.22 L380.71,165.05 L384.08,164.69 L387.45,164.17 L390.82,162.16 L394.19,159.68 L397.56,155.75 L400.93,153.15 L404.30,152.80 L407.67,152.40 L411.04,152.72 L414.41,152.97 L417.78,154.03 L421.15,156.46 L424.51,160.27 L427.88,162.79 L431.25,165.13 L434.62,165.66 L437.99,166.27 L441.36,166.05 L444.73,164.85 L448.10,164.71 L451.47,164.94 L454.84,163.88 L458.21,163.63 L461.58,163.04 L464.95,163.01 L468.32,162.39 L471.68,162.27 L475.05,162.98 L478.42,162.95 L481.79,163.54 L485.16,163.75 L488.53,163.24 L491.90,161.61 L495.27,160.34 L498.64,158.60 L502.01,160.41 L505.38,162.69 L508.75,167.09 L512.12,171.74 L515.49,174.80 L518.85,178.99 L522.22,182.46 L525.59,186.63 L528.96,190.54 L532.33,194.14 L535.70,198.49 L539.07,200.87 L542.44,204.57 L545.81,207.16 L549.18,208.17 L552.55,207.30 L555.92,206.30 L559.29,205.43 L562.66,203.74 L566.02,201.36 L569.39,199.67 L572.76,198.37 L576.13,198.34 L579.50,198.61 L582.87,198.80 L586.24,199.31 L589.61,199.43 L592.98,200.14 L596.35,200.51 L599.72,202.98 L603.09,203.27 L606.46,203.99 L609.83,204.75 L613.20,205.14 L616.56,204.84 L619.93,204.86 L623.30,204.33 L626.67,204.00 L630.04,203.69 L633.41,203.12 L636.78,202.29 L640.15,203.09 L643.52,210.29 L646.89,210.31 L650.26,210.28 L653.63,210.25 L657.00,210.53 L660.37,210.48 L663.73,210.91 L667.10,210.35 L670.47,211.41 L673.84,210.92 L677.21,209.51 L680.58,209.06 L683.95,208.53 L687.32,208.21 L690.69,207.79 L694.06,207.38 L697.43,207.51 L700.80,207.10 L704.17,206.29 L707.54,203.99 L710.90,192.66 L714.27,191.28 L717.64,190.57 L721.01,189.83 L724.38,191.35 L727.75,192.78 L731.12,194.73 L734.49,195.89 L737.86,196.10 L741.23,195.91 L744.60,194.76 L747.97,194.68 L751.34,194.02 L754.71,193.67 L758.07,193.85 L761.44,195.29 L764.81,198.37 L768.18,200.66 L771.55,203.48 L774.92,207.43 L778.29,211.36 L781.66,214.42 L785.03,216.12 L788.40,218.05 L791.77,221.15 L795.14,220.99 L798.51,219.60 L801.88,217.71 L805.24,216.70 L808.61,215.89 L811.98,214.53 L815.35,212.99 L818.72,211.93 L822.09,213.76 L825.46,215.35 L828.83,216.14 L832.20,215.66 L835.57,215.29 L838.94,215.21 L842.31,217.65 L845.68,217.99 L849.05,217.68 L852.41,220.86 L855.78,224.91 L859.15,230.93 L862.52,237.32 L865.89,245.85 L869.26,251.40 L872.63,254.95 L876.00,258.00 " fill="none" stroke="#d65a12" stroke-width="2"/>
<text x="64" y="288" font-size="14" font-family="SimSun" fill="#17212b">close</text><text x="204" y="288" font-size="14" font-family="SimSun" fill="#d65a12">upper</text><text x="344" y="288" font-size="14" font-family="SimSun" fill="#1266d6">mid</text><text x="484" y="288" font-size="14" font-family="SimSun" fill="#d65a12">lower</text>
</svg>