<svg xmlns="http://www.w3.org/2000/svg" width="900" height="300" viewBox="0 0 900 300">
<rect width="100%" height="100%" fill="#ffffff"/>
<text x="64" y="26" font-size="18" font-family="SimSun" font-weight="700">Task 1 运行结果：每日收盘价</text>
<line x1="64" y1="42" x2="876" y2="42" stroke="#d8dee6"/><text x="8" y="46" font-size="14" font-family="SimSun">13.18</text><line x1="64" y1="96" x2="876" y2="96" stroke="#d8dee6"/><text x="8" y="100" font-size="14" font-family="SimSun">12.40</text><line x1="64" y1="150" x2="876" y2="150" stroke="#d8dee6"/><text x="8" y="154" font-size="14" font-family="SimSun">11.62</text><line x1="64" y1="204" x2="876" y2="204" stroke="#d8dee6"/><text x="8" y="208" font-size="14" font-family="SimSun">10.83</text><line x1="64" y1="258" x2="876" y2="258" stroke="#d8dee6"/><text x="8" y="262" font-size="14" font-family="SimSun">10.05</text>
<path d="M64.00,82.03 L67.37,69.60 L70.74,75.81 L74.11,65.46 L77.48,42.00 L80.85,60.63 L84.22,55.80 L87.59,73.05 L90.95,79.27 L94.32,82.72 L97.69,75.12 L101.06,81.34 L104.43,89.62 L107.80,86.86 L111.17,99.28 L114.54,99.28 L117.91,91.69 L121.28,99.97 L124.65,89.62 L128.02,107.56 L131.39,104.11 L134.76,102.73 L138.12,91.00 L141.49,91.69 L144.86,91.00 L148.23,95.83 L151.60,102.73 L154.97,100.66 L158.34,105.49 L161.71,109.63 L165.08,117.91 L168.45,117.91 L171.82,119.29 L175.19,118.60 L178.56,113.08 L181.93,119.29 L185.29,92.38 L188.66,98.59 L192.03,119.29 L195.40,117.91 L198.77,119.98 L202.14,131.02 L205.51,124.81 L208.88,140.68 L212.25,141.37 L215.62,142.75 L218.99,144.13 L222.36,140.68 L225.73,139.30 L229.10,133.78 L232.46,142.75 L235.83,147.58 L239.20,148.27 L242.57,148.27 L245.94,164.15 L249.31,161.39 L252.68,166.22 L256.05,156.56 L259.42,160.70 L262.79,164.84 L266.16,164.84 L269.53,166.91 L272.90,168.98 L276.27,164.84 L279.63,162.77 L283.00,164.84 L286.37,153.11 L289.74,164.84 L293.11,155.18 L296.48,164.84 L299.85,163.46 L303.22,162.77 L306.59,156.56 L309.96,148.96 L313.33,153.80 L316.70,156.56 L320.07,160.01 L323.44,165.53 L326.80,166.22 L330.17,170.36 L333.54,162.77 L336.91,151.73 L340.28,156.56 L343.65,157.25 L347.02,154.49 L350.39,148.96 L353.76,146.20 L357.13,145.51 L360.50,144.13 L363.87,140.68 L367.24,146.20 L370.61,151.73 L373.98,137.23 L377.34,133.78 L380.71,144.82 L384.08,151.04 L387.45,137.23 L390.82,144.82 L394.19,143.44 L397.56,150.35 L400.93,144.82 L404.30,148.27 L407.67,154.49 L411.04,158.63 L414.41,155.87 L417.78,156.56 L421.15,162.77 L424.51,169.67 L427.88,166.91 L431.25,168.29 L434.62,157.25 L437.99,159.32 L441.36,155.87 L444.73,148.27 L448.10,149.65 L451.47,156.56 L454.84,153.80 L458.21,155.18 L461.58,153.80 L464.95,155.18 L468.32,153.80 L471.68,159.32 L475.05,164.15 L478.42,157.94 L481.79,146.20 L485.16,148.27 L488.53,157.25 L491.90,160.70 L495.27,159.32 L498.64,160.01 L502.01,167.60 L505.38,171.05 L508.75,179.33 L512.12,184.16 L515.49,181.40 L518.85,187.61 L522.22,187.61 L525.59,193.13 L528.96,195.20 L532.33,196.58 L535.70,203.48 L539.07,195.20 L542.44,204.17 L545.81,202.10 L549.18,203.48 L552.55,194.51 L555.92,186.23 L559.29,188.99 L562.66,187.61 L566.02,188.30 L569.39,187.61 L572.76,195.20 L576.13,198.65 L579.50,198.65 L582.87,202.10 L586.24,201.41 L589.61,199.34 L592.98,202.79 L596.35,200.72 L599.72,212.45 L603.09,205.55 L606.46,204.86 L609.83,209.00 L613.20,205.55 L616.56,200.03 L619.93,196.58 L623.30,197.27 L626.67,197.96 L630.04,190.37 L633.41,195.20 L636.78,200.72 L640.15,208.31 L643.52,230.40 L646.89,200.72 L650.26,196.58 L653.63,196.58 L657.00,191.06 L660.37,193.13 L663.73,186.92 L667.10,182.09 L670.47,173.81 L673.84,184.16 L677.21,190.37 L680.58,177.26 L683.95,185.54 L687.32,186.23 L690.69,187.61 L694.06,180.71 L697.43,177.95 L700.80,186.23 L704.17,191.75 L707.54,188.30 L710.90,186.92 L714.27,193.82 L717.64,192.44 L721.01,192.44 L724.38,166.22 L727.75,160.70 L731.12,156.56 L734.49,158.63 L737.86,167.60 L741.23,166.91 L744.60,171.74 L747.97,173.12 L751.34,175.19 L754.71,182.78 L758.07,188.99 L761.44,193.13 L764.81,202.10 L768.18,202.10 L771.55,208.31 L774.92,213.14 L778.29,214.52 L781.66,214.52 L785.03,206.93 L788.40,209.00 L791.77,215.90 L795.14,197.27 L798.51,193.13 L801.88,186.92 L805.24,193.13 L808.61,204.86 L811.98,193.82 L815.35,190.37 L818.72,183.47 L822.09,170.36 L825.46,171.74 L828.83,175.88 L832.20,188.30 L835.57,196.58 L838.94,207.62 L842.31,225.57 L845.68,216.59 L849.05,212.45 L852.41,226.26 L855.78,232.47 L859.15,245.58 L862.52,244.89 L865.89,258.00 L869.26,250.41 L872.63,242.13 L876.00,241.44 " fill="none" stroke="#1266d6" stroke-width="2"/>
<text x="64" y="288" font-size="14" font-family="SimSun" fill="#1266d6">close</text>
</svg>