<svg xmlns="http://www.w3.org/2000/svg" width="900" height="300" viewBox="0 0 900 300">
<rect width="100%" height="100%" fill="#ffffff"/>
<text x="64" y="26" font-size="18" font-family="SimSun" font-weight="700">Task 2 运行结果：MACD</text>
<line x1="64" y1="42" x2="876" y2="42" stroke="#d8dee6"/><text x="8" y="46" font-size="14" font-family="SimSun">0.117</text><line x1="64" y1="96" x2="876" y2="96" stroke="#d8dee6"/><text x="8" y="100" font-size="14" font-family="SimSun">0.034</text><line x1="64" y1="150" x2="876" y2="150" stroke="#d8dee6"/><text x="8" y="154" font-size="14" font-family="SimSun">-0.050</text><line x1="64" y1="204" x2="876" y2="204" stroke="#d8dee6"/><text x="8" y="208" font-size="14" font-family="SimSun">-0.134</text><line x1="64" y1="258" x2="876" y2="258" stroke="#d8dee6"/><text x="8" y="262" font-size="14" font-family="SimSun">-0.218</text>
<path d="M64.00,117.69 L67.37,108.43 L70.74,105.92 L74.11,96.36 L77.48,71.64 L80.85,66.68 L84.22,59.77 L87.59,67.88 L90.95,79.42 L94.32,91.47 L97.69,95.56 L101.06,103.64 L104.43,116.30 L107.80,124.18 L111.17,139.54 L114.54,151.32 L117.91,154.51 L121.28,162.76 L124.65,161.00 L128.02,172.49 L131.39,178.30 L134.76,181.14 L138.12,173.89 L141.49,168.09 L144.86,162.46 L148.23,161.13 L151.60,164.74 L154.97,165.49 L158.34,169.13 L161.71,174.48 L165.08,184.20 L168.45,191.05 L171.82,196.61 L175.19,199.56 L178.56,196.82 L181.93,198.40 L185.29,178.66 L188.66,167.13 L192.03,172.96 L195.40,175.87 L198.77,179.03 L202.14,189.03 L205.51,191.43 L208.88,204.29 L212.25,213.90 L215.62,221.36 L218.99,227.05 L222.36,227.69 L225.73,225.91 L229.10,219.17 L232.46,219.41 L235.83,222.05 L239.20,223.44 L242.57,223.32 L245.94,233.85 L249.31,238.72 L252.68,244.76 L256.05,240.84 L259.42,239.45 L262.79,240.06 L266.16,239.14 L269.53,238.59 L272.90,238.31 L276.27,233.64 L279.63,227.11 L283.00,222.29 L286.37,208.59 L289.74,205.55 L293.11,194.98 L296.48,193.01 L299.85,189.58 L303.22,185.56 L306.59,177.01 L309.96,163.97 L313.33,156.84 L316.70,152.85 L320.07,151.90 L323.44,154.88 L326.80,157.31 L330.17,161.84 L333.54,159.24 L336.91,148.49 L340.28,143.32 L343.65,139.50 L347.02,134.19 L350.39,125.73 L353.76,116.96 L357.13,109.58 L360.50,102.86 L363.87,95.19 L367.24,93.56 L370.61,96.66 L373.98,88.54 L377.34,79.94 L380.71,81.85 L384.08,88.39 L387.45,83.56 L390.82,85.82 L394.19,86.93 L397.56,93.29 L400.93,94.44 L404.30,98.17 L407.67,105.95 L411.04,115.26 L414.41,120.53 L417.78,125.14 L421.15,133.29 L424.51,144.64 L427.88,151.17 L431.25,156.94 L434.62,152.78 L437.99,150.66 L441.36,146.06 L444.73,136.47 L448.10,129.77 L451.47,129.53 L454.84,127.15 L458.21,126.20 L461.58,124.34 L464.95,123.83 L468.32,122.33 L471.68,125.22 L475.05,130.99 L478.42,130.74 L481.79,121.65 L485.16,116.03 L488.53,118.32 L491.90,122.69 L495.27,125.02 L498.64,127.28 L502.01,134.60 L505.38,142.71 L508.75,154.95 L512.12,167.71 L515.49,175.09 L518.85,184.84 L522.22,191.71 L525.59,200.37 L528.96,207.75 L532.33,213.54 L535.70,222.12 L539.07,221.49 L542.44,226.49 L545.81,227.63 L549.18,228.29 L552.55,220.87 L555.92,207.71 L559.29,198.43 L562.66,189.21 L566.02,181.68 L569.39,174.54 L572.76,173.96 L576.13,175.43 L579.50,175.93 L582.87,178.22 L586.24,178.82 L589.61,177.04 L592.98,177.55 L596.35,175.72 L599.72,182.37 L603.09,181.70 L606.46,179.93 L609.83,180.92 L613.20,178.40 L616.56,171.62 L619.93,163.13 L623.30,156.47 L626.67,151.32 L630.04,141.25 L633.41,136.69 L636.78,137.02 L640.15,142.71 L643.52,163.34 L646.89,156.87 L650.26,148.27 L653.63,141.18 L657.00,131.25 L660.37,124.85 L663.73,115.13 L667.10,103.95 L670.47,89.17 L673.84,85.63 L677.21,87.85 L680.58,80.16 L683.95,80.73 L687.32,82.12 L690.69,84.63 L694.06,81.84 L697.43,78.01 L700.80,81.62 L704.17,88.98 L707.54,92.50 L710.90,94.52 L714.27,101.51 L717.64,106.14 L721.01,109.90 L724.38,93.39 L727.75,76.62 L731.12,60.87 L734.49,50.71 L737.86,50.21 L741.23,50.06 L744.60,54.32 L747.97,59.41 L751.34,65.60 L754.71,76.70 L758.07,90.50 L761.44,104.70 L764.81,122.66 L768.18,136.67 L771.55,152.06 L774.92,167.33 L778.29,179.75 L781.66,188.78 L785.03,189.38 L788.40,190.58 L791.77,195.84 L795.14,185.18 L798.51,172.97 L801.88,158.15 L805.24,150.70 L808.61,153.24 L811.98,146.59 L815.35,138.48 L818.72,126.75 L822.09,107.68 L825.46,93.89 L828.83,86.43 L832.20,90.21 L835.57,99.65 L838.94,115.48 L842.31,141.28 L845.68,154.53 L849.05,161.42 L852.41,176.59 L855.78,192.44 L859.15,213.78 L862.52,228.88 L865.89,249.22 L869.26,258.00 L872.63,257.11 L876.00,254.31 " fill="none" stroke="#1266d6" stroke-width="2"/><path d="M64.00,117.69 L67.37,115.84 L70.74,113.85 L74.11,110.36 L77.48,102.61 L80.85,95.43 L84.22,88.29 L87.59,84.21 L90.95,83.25 L94.32,84.90 L97.69,87.03 L101.06,90.35 L104.43,95.54 L107.80,101.27 L111.17,108.92 L114.54,117.40 L117.91,124.82 L121.28,132.41 L124.65,138.13 L128.02,145.00 L131.39,151.66 L134.76,157.56 L138.12,160.82 L141.49,162.28 L144.86,162.31 L148.23,162.08 L151.60,162.61 L154.97,163.18 L158.34,164.37 L161.71,166.39 L165.08,169.96 L168.45,174.17 L171.82,178.66 L175.19,182.84 L178.56,185.64 L181.93,188.19 L185.29,186.28 L188.66,182.45 L192.03,180.56 L195.40,179.62 L198.77,179.50 L202.14,181.41 L205.51,183.41 L208.88,187.59 L212.25,192.85 L215.62,198.55 L218.99,204.25 L222.36,208.94 L225.73,212.33 L229.10,213.70 L232.46,214.84 L235.83,216.28 L239.20,217.71 L242.57,218.84 L245.94,221.84 L249.31,225.21 L252.68,229.12 L256.05,231.47 L259.42,233.06 L262.79,234.46 L266.16,235.40 L269.53,236.04 L272.90,236.49 L276.27,235.92 L279.63,234.16 L283.00,231.79 L286.37,227.15 L289.74,222.83 L293.11,217.26 L296.48,212.41 L299.85,207.84 L303.22,203.38 L306.59,198.11 L309.96,191.28 L313.33,184.39 L316.70,178.08 L320.07,172.85 L323.44,169.26 L326.80,166.87 L330.17,165.86 L333.54,164.54 L336.91,161.33 L340.28,157.73 L343.65,154.08 L347.02,150.10 L350.39,145.23 L353.76,139.58 L357.13,133.58 L360.50,127.43 L363.87,120.98 L367.24,115.50 L370.61,111.73 L373.98,107.09 L377.34,101.66 L380.71,97.70 L384.08,95.84 L387.45,93.38 L390.82,91.87 L394.19,90.88 L397.56,91.36 L400.93,91.98 L404.30,93.22 L407.67,95.76 L411.04,99.66 L414.41,103.84 L417.78,108.10 L421.15,113.14 L424.51,119.44 L427.88,125.78 L431.25,132.01 L434.62,136.17 L437.99,139.07 L441.36,140.46 L444.73,139.66 L448.10,137.69 L451.47,136.05 L454.84,134.27 L458.21,132.66 L461.58,130.99 L464.95,129.56 L468.32,128.11 L471.68,127.53 L475.05,128.23 L478.42,128.73 L481.79,127.31 L485.16,125.06 L488.53,123.71 L491.90,123.50 L495.27,123.81 L498.64,124.50 L502.01,126.52 L505.38,129.76 L508.75,134.80 L512.12,141.38 L515.49,148.12 L518.85,155.46 L522.22,162.71 L525.59,170.25 L528.96,177.75 L532.33,184.91 L535.70,192.35 L539.07,198.18 L542.44,203.84 L545.81,208.60 L549.18,212.54 L552.55,214.20 L555.92,212.90 L559.29,210.01 L562.66,205.85 L566.02,201.02 L569.39,195.72 L572.76,191.37 L576.13,188.18 L579.50,185.73 L582.87,184.23 L586.24,183.15 L589.61,181.93 L592.98,181.05 L596.35,179.98 L599.72,180.46 L603.09,180.71 L606.46,180.55 L609.83,180.62 L613.20,180.18 L616.56,178.47 L619.93,175.40 L623.30,171.61 L626.67,167.55 L630.04,162.29 L633.41,157.17 L636.78,153.14 L640.15,151.06 L643.52,153.51 L646.89,154.18 L650.26,153.00 L653.63,150.64 L657.00,146.76 L660.37,142.38 L663.73,136.93 L667.10,130.33 L670.47,122.10 L673.84,114.80 L677.21,109.41 L680.58,103.56 L683.95,99.00 L687.32,95.62 L690.69,93.42 L694.06,91.11 L697.43,88.49 L700.80,87.11 L704.17,87.49 L707.54,88.49 L710.90,89.70 L714.27,92.06 L717.64,94.87 L721.01,97.88 L724.38,96.98 L727.75,92.91 L731.12,86.50 L734.49,79.34 L737.86,73.52 L741.23,68.83 L744.60,65.92 L747.97,64.62 L751.34,64.82 L754.71,67.19 L758.07,71.85 L761.44,78.42 L764.81,87.27 L768.18,97.15 L771.55,108.13 L774.92,119.97 L778.29,131.93 L781.66,143.30 L785.03,152.52 L788.40,160.13 L791.77,167.27 L795.14,170.85 L798.51,171.28 L801.88,168.65 L805.24,165.06 L808.61,162.70 L811.98,159.47 L815.35,155.28 L818.72,149.57 L822.09,141.19 L825.46,131.73 L828.83,122.67 L832.20,116.18 L835.57,112.87 L838.94,113.39 L842.31,118.97 L845.68,126.08 L849.05,133.15 L852.41,141.84 L855.78,151.96 L859.15,164.32 L862.52,177.23 L865.89,191.63 L869.26,204.91 L872.63,215.35 L876.00,223.14 " fill="none" stroke="#d65a12" stroke-width="2"/><path d="M64.00,117.69 L67.37,102.88 L70.74,101.81 L74.11,89.70 L77.48,55.74 L80.85,60.19 L84.22,60.64 L87.59,85.02 L90.95,110.03 L94.32,130.84 L97.69,134.75 L101.06,144.27 L104.43,159.21 L107.80,163.51 L111.17,178.92 L114.54,185.52 L117.91,177.06 L121.28,178.39 L124.65,163.43 L128.02,172.67 L131.39,170.97 L134.76,164.85 L138.12,143.83 L141.49,129.31 L144.86,117.97 L148.23,115.80 L151.60,121.95 L154.97,122.30 L158.34,127.20 L161.71,133.86 L165.08,146.17 L168.45,151.44 L171.82,153.59 L175.19,151.12 L178.56,140.05 L181.93,138.11 L185.29,102.45 L188.66,87.05 L192.03,102.50 L195.40,110.20 L198.77,116.75 L202.14,132.94 L205.51,133.73 L208.88,151.10 L212.25,159.79 L215.62,163.30 L218.99,163.28 L222.36,155.19 L225.73,144.84 L229.10,128.63 L232.46,126.83 L235.83,129.22 L239.20,129.13 L242.57,126.66 L245.94,141.71 L249.31,144.70 L252.68,148.96 L256.05,136.43 L259.42,130.46 L262.79,128.89 L266.16,125.18 L269.53,122.79 L272.90,121.33 L276.27,113.12 L279.63,103.60 L283.00,98.71 L286.37,80.57 L289.74,83.14 L293.11,73.13 L296.48,78.89 L299.85,81.16 L303.22,82.04 L306.59,75.48 L309.96,63.07 L313.33,62.58 L316.70,67.23 L320.07,75.80 L323.44,88.95 L326.80,98.58 L330.17,109.65 L333.54,107.09 L336.91,92.02 L340.28,88.88 L343.65,88.52 L347.02,85.87 L350.39,78.70 L353.76,72.46 L357.13,69.69 L360.50,68.54 L363.87,66.11 L367.24,73.81 L370.61,87.55 L373.98,80.58 L377.34,74.24 L380.71,85.99 L384.08,102.79 L387.45,98.05 L390.82,105.60 L394.19,109.79 L397.56,121.54 L400.93,122.61 L404.30,127.60 L407.67,138.06 L411.04,148.89 L414.41,151.07 L417.78,151.77 L421.15,158.00 L424.51,168.10 L427.88,168.47 L431.25,167.53 L434.62,150.91 L437.99,140.88 L441.36,128.87 L444.73,111.30 L448.10,101.86 L451.47,104.64 L454.84,103.44 L458.21,104.78 L461.58,104.37 L464.95,106.22 L468.32,106.12 L471.68,113.05 L475.05,123.22 L478.42,121.71 L481.79,106.36 L485.16,99.63 L488.53,106.92 L491.90,116.05 L495.27,120.12 L498.64,123.24 L502.01,133.84 L505.38,143.59 L508.75,157.99 L512.12,170.36 L515.49,171.62 L518.85,176.44 L522.22,175.69 L525.59,177.94 L528.96,177.70 L532.33,174.96 L535.70,177.24 L539.07,164.31 L542.44,162.99 L545.81,155.75 L549.18,149.21 L552.55,131.03 L555.92,107.30 L559.29,94.53 L562.66,84.41 L566.02,79.03 L569.39,75.34 L572.76,82.87 L576.13,92.19 L579.50,98.08 L582.87,105.68 L586.24,109.03 L589.61,107.92 L592.98,110.69 L596.35,109.16 L599.72,121.50 L603.09,119.67 L606.46,116.44 L609.83,118.27 L613.20,114.13 L616.56,104.00 L619.93,93.14 L623.30,87.40 L626.67,85.22 L630.04,75.60 L633.41,76.73 L636.78,85.44 L640.15,100.99 L643.52,137.34 L646.89,123.06 L650.26,108.22 L653.63,98.78 L657.00,86.67 L660.37,82.64 L663.73,74.10 L667.10,64.92 L670.47,51.83 L673.84,59.34 L677.21,74.56 L680.58,70.88 L683.95,81.16 L687.32,90.68 L690.69,100.11 L694.06,99.16 L697.43,96.73 L700.80,106.71 L704.17,120.68 L707.54,125.72 L710.90,127.34 L714.27,136.59 L717.64,140.22 L721.01,141.73 L724.38,110.51 L727.75,85.11 L731.12,66.42 L734.49,60.43 L737.86,71.07 L741.23,80.17 L744.60,94.48 L747.97,107.26 L751.34,119.26 L754.71,136.71 L758.07,154.97 L761.44,170.24 L764.81,188.46 L768.18,196.73 L771.55,205.55 L774.92,212.40 L778.29,213.34 L781.66,208.65 L785.03,191.43 L788.40,178.60 L791.77,174.82 L795.14,146.34 L798.51,121.08 L801.88,96.69 L805.24,88.98 L808.61,98.77 L811.98,91.92 L815.35,84.10 L818.72,72.04 L822.09,50.67 L825.46,42.00 L828.83,45.22 L832.20,65.75 L835.57,91.24 L838.94,121.86 L842.31,162.30 L845.68,174.59 L849.05,174.22 L852.41,187.20 L855.78,198.65 L859.15,216.60 L862.52,220.99 L865.89,232.87 L869.26,223.88 L872.63,201.22 L876.00,180.03 " fill="none" stroke="#16704a" stroke-width="1"/>
<text x="64" y="288" font-size="14" font-family="SimSun" fill="#1266d6">DIF</text><text x="204" y="288" font-size="14" font-family="SimSun" fill="#d65a12">DEA</text><text x="344" y="288" font-size="14" font-family="SimSun" fill="#16704a">MACD</text>
</svg>