<svg xmlns="http://www.w3.org/2000/svg" width="900" height="300" viewBox="0 0 900 300">
<rect width="100%" height="100%" fill="#ffffff"/>
<text x="64" y="26" font-size="18" font-family="SimSun" font-weight="700">Task 2 运行结果：OBV 能量潮</text>
<line x1="64" y1="42" x2="876" y2="42" stroke="#d8dee6"/><text x="8" y="46" font-size="14" font-family="SimSun">4091799</text><line x1="64" y1="96" x2="876" y2="96" stroke="#d8dee6"/><text x="8" y="100" font-size="14" font-family="SimSun">-3448188</text><line x1="64" y1="150" x2="876" y2="150" stroke="#d8dee6"/><text x="8" y="154" font-size="14" font-family="SimSun">-10988175</text><line x1="64" y1="204" x2="876" y2="204" stroke="#d8dee6"/><text x="8" y="208" font-size="14" font-family="SimSun">-18528162</text><line x1="64" y1="258" x2="876" y2="258" stroke="#d8dee6"/><text x="8" y="262" font-size="14" font-family="SimSun">-26068149</text>
<path d="M64.00,71.30 L67.37,60.59 L70.74,68.41 L74.11,59.77 L77.48,42.00 L80.85,59.50 L84.22,46.09 L87.59,59.05 L90.95,72.86 L94.32,79.63 L97.69,70.74 L101.06,78.47 L104.43,92.33 L107.80,82.51 L111.17,96.54 L114.54,96.54 L117.91,87.67 L121.28,94.93 L124.65,82.64 L128.02,94.75 L131.39,87.50 L134.76,80.10 L138.12,72.00 L141.49,76.94 L144.86,71.77 L148.23,77.71 L151.60,84.40 L154.97,79.53 L158.34,87.55 L161.71,96.44 L165.08,110.40 L168.45,110.40 L171.82,116.79 L175.19,109.28 L178.56,100.56 L181.93,112.34 L185.29,90.53 L188.66,100.44 L192.03,113.76 L195.40,101.92 L198.77,114.84 L202.14,128.15 L205.51,117.46 L208.88,127.26 L212.25,136.53 L215.62,142.40 L218.99,149.02 L222.36,142.86 L225.73,137.18 L229.10,130.28 L232.46,137.01 L235.83,143.03 L239.20,148.10 L242.57,148.10 L245.94,158.03 L249.31,152.05 L252.68,156.33 L256.05,146.72 L259.42,154.88 L262.79,160.42 L266.16,160.42 L269.53,168.84 L272.90,174.80 L276.27,167.30 L279.63,159.51 L283.00,167.88 L286.37,154.68 L289.74,163.78 L293.11,154.74 L296.48,162.19 L299.85,155.37 L303.22,149.91 L306.59,143.94 L309.96,134.11 L313.33,141.13 L316.70,150.01 L320.07,155.89 L323.44,162.81 L326.80,169.57 L330.17,176.52 L333.54,169.70 L336.91,158.94 L340.28,164.63 L343.65,170.12 L347.02,164.86 L350.39,158.93 L353.76,152.58 L357.13,144.41 L360.50,137.40 L363.87,127.96 L367.24,135.09 L370.61,139.89 L373.98,130.33 L377.34,118.61 L380.71,129.10 L384.08,137.10 L387.45,129.74 L390.82,135.62 L394.19,128.37 L397.56,134.71 L400.93,127.28 L404.30,132.78 L407.67,139.54 L411.04,145.89 L414.41,139.51 L417.78,145.64 L421.15,150.90 L424.51,158.37 L427.88,151.75 L431.25,160.28 L434.62,153.55 L437.99,158.18 L441.36,153.16 L444.73,147.50 L448.10,152.15 L451.47,157.47 L454.84,152.70 L458.21,156.31 L461.58,152.39 L464.95,155.52 L468.32,150.88 L471.68,155.05 L475.05,159.28 L478.42,153.01 L481.79,143.66 L485.16,150.58 L488.53,158.46 L491.90,165.51 L495.27,159.38 L498.64,166.98 L502.01,176.11 L505.38,182.45 L508.75,190.47 L512.12,196.23 L515.49,190.70 L518.85,197.15 L522.22,197.15 L525.59,205.10 L528.96,213.02 L532.33,219.42 L535.70,229.73 L539.07,216.46 L542.44,224.28 L545.81,215.52 L549.18,221.29 L552.55,216.31 L555.92,207.88 L559.29,213.09 L562.66,208.65 L566.02,212.95 L569.39,209.86 L572.76,214.74 L576.13,218.72 L579.50,218.72 L582.87,226.33 L586.24,221.23 L589.61,216.84 L592.98,222.85 L596.35,215.49 L599.72,223.29 L603.09,218.19 L606.46,214.77 L609.83,220.76 L613.20,215.10 L616.56,209.94 L619.93,204.53 L623.30,210.56 L626.67,215.69 L630.04,207.98 L633.41,213.64 L636.78,218.11 L640.15,224.09 L643.52,235.40 L646.89,223.79 L650.26,218.45 L653.63,218.45 L657.00,212.12 L660.37,216.65 L663.73,208.31 L667.10,201.73 L670.47,193.50 L673.84,198.93 L677.21,203.28 L680.58,197.46 L683.95,201.77 L687.32,205.22 L690.69,208.13 L694.06,204.57 L697.43,200.96 L700.80,205.84 L704.17,211.01 L707.54,206.50 L710.90,200.72 L714.27,206.73 L717.64,202.09 L721.01,202.09 L724.38,177.73 L727.75,165.74 L731.12,155.87 L734.49,164.03 L737.86,172.74 L741.23,166.03 L744.60,171.75 L747.97,178.42 L751.34,185.79 L754.71,193.08 L758.07,198.77 L761.44,205.75 L764.81,211.89 L768.18,211.89 L771.55,217.24 L774.92,225.19 L778.29,232.03 L781.66,232.03 L785.03,226.03 L788.40,232.04 L791.77,238.49 L795.14,228.47 L798.51,221.64 L801.88,215.29 L805.24,221.20 L808.61,227.43 L811.98,220.24 L815.35,212.43 L818.72,204.20 L822.09,193.14 L825.46,201.43 L828.83,215.98 L832.20,227.02 L835.57,233.77 L838.94,240.69 L842.31,250.91 L845.68,241.84 L849.05,233.32 L852.41,241.38 L855.78,249.14 L859.15,258.00 L862.52,249.95 L865.89,257.91 L869.26,251.41 L872.63,244.22 L876.00,238.03 " fill="none" stroke="#16704a" stroke-width="2"/>
<text x="64" y="288" font-size="14" font-family="SimSun" fill="#16704a">OBV</text>
</svg>