<svg xmlns="http://www.w3.org/2000/svg" width="900" height="300" viewBox="0 0 900 300">
<rect width="100%" height="100%" fill="#ffffff"/>
<text x="64" y="26" font-size="18" font-family="SimSun" font-weight="700">Task 2 运行结果：RSI(14)</text>
<line x1="64" y1="42" x2="876" y2="42" stroke="#d8dee6"/><text x="8" y="46" font-size="14" font-family="SimSun">76.24</text><line x1="64" y1="96" x2="876" y2="96" stroke="#d8dee6"/><text x="8" y="100" font-size="14" font-family="SimSun">57.47</text><line x1="64" y1="150" x2="876" y2="150" stroke="#d8dee6"/><text x="8" y="154" font-size="14" font-family="SimSun">38.70</text><line x1="64" y1="204" x2="876" y2="204" stroke="#d8dee6"/><text x="8" y="208" font-size="14" font-family="SimSun">19.93</text><line x1="64" y1="258" x2="876" y2="258" stroke="#d8dee6"/><text x="8" y="262" font-size="14" font-family="SimSun">1.16</text>
<path d="M111.17,135.21 L114.54,150.93 L117.91,135.18 L121.28,156.58 L124.65,177.65 L128.02,177.14 L131.39,179.65 L134.76,161.99 L138.12,134.13 L141.49,130.57 L144.86,142.37 L148.23,140.55 L151.60,138.68 L154.97,139.97 L158.34,128.55 L161.71,135.03 L165.08,161.57 L168.45,150.88 L171.82,179.97 L175.19,148.59 L178.56,141.78 L181.93,158.59 L185.29,120.20 L188.66,130.11 L192.03,158.73 L195.40,150.85 L198.77,144.94 L202.14,161.45 L205.51,145.08 L208.88,157.20 L212.25,149.67 L215.62,151.12 L218.99,151.12 L222.36,146.62 L225.73,153.45 L229.10,137.50 L232.46,201.50 L235.83,200.53 L239.20,181.77 L242.57,186.29 L245.94,199.69 L249.31,180.79 L252.68,205.56 L256.05,154.67 L259.42,160.34 L262.79,164.46 L266.16,162.44 L269.53,175.64 L272.90,182.60 L276.27,187.10 L279.63,167.75 L283.00,163.01 L286.37,128.09 L289.74,148.32 L293.11,99.33 L296.48,123.85 L299.85,112.16 L303.22,131.12 L306.59,108.68 L309.96,85.37 L313.33,96.56 L316.70,98.05 L320.07,100.94 L323.44,118.74 L326.80,123.85 L330.17,127.41 L333.54,135.80 L336.91,92.41 L340.28,120.31 L343.65,99.71 L347.02,96.94 L350.39,88.13 L353.76,94.29 L357.13,108.82 L360.50,91.67 L363.87,75.61 L367.24,82.40 L370.61,82.40 L373.98,58.25 L377.34,42.00 L380.71,82.20 L384.08,116.04 L387.45,81.52 L390.82,96.26 L394.19,98.31 L397.56,119.85 L400.93,115.21 L404.30,121.92 L407.67,133.24 L411.04,144.59 L414.41,132.52 L417.78,125.42 L421.15,163.77 L424.51,179.83 L427.88,160.11 L431.25,153.10 L434.62,160.50 L437.99,151.43 L441.36,145.63 L444.73,112.85 L448.10,129.06 L451.47,136.25 L454.84,115.84 L458.21,108.82 L461.58,112.16 L464.95,113.98 L468.32,92.55 L471.68,87.93 L475.05,109.92 L478.42,91.49 L481.79,90.09 L485.16,90.09 L488.53,120.62 L491.90,147.60 L495.27,140.91 L498.64,126.83 L502.01,151.74 L505.38,155.52 L508.75,172.36 L512.12,176.72 L515.49,172.82 L518.85,173.66 L522.22,167.40 L525.59,193.12 L528.96,240.55 L532.33,240.29 L535.70,239.49 L539.07,201.13 L542.44,213.89 L545.81,206.13 L549.18,200.61 L552.55,167.40 L555.92,132.17 L559.29,128.09 L562.66,131.41 L566.02,119.18 L569.39,117.49 L572.76,122.34 L576.13,125.39 L579.50,122.34 L582.87,114.06 L586.24,135.22 L589.61,101.50 L592.98,119.70 L596.35,108.77 L599.72,170.92 L603.09,176.72 L606.46,168.39 L609.83,182.12 L613.20,166.75 L616.56,149.86 L619.93,121.38 L623.30,113.38 L626.67,115.46 L630.04,85.73 L633.41,101.89 L636.78,120.76 L640.15,129.73 L643.52,167.78 L646.89,101.08 L650.26,104.59 L653.63,105.50 L657.00,91.87 L660.37,99.51 L663.73,98.64 L667.10,96.94 L670.47,86.53 L673.84,100.76 L677.21,117.49 L680.58,96.94 L683.95,100.47 L687.32,91.33 L690.69,56.40 L694.06,80.57 L697.43,82.50 L700.80,99.95 L704.17,118.66 L707.54,109.43 L710.90,117.49 L714.27,137.70 L717.64,152.48 L721.01,135.47 L724.38,77.21 L727.75,87.20 L731.12,61.54 L734.49,65.18 L737.86,83.01 L741.23,91.80 L744.60,106.23 L747.97,91.46 L751.34,82.96 L754.71,106.63 L758.07,121.31 L761.44,116.17 L764.81,134.27 L768.18,134.27 L771.55,213.92 L774.92,238.97 L778.29,258.00 L781.66,257.88 L785.03,218.72 L788.40,223.21 L791.77,224.55 L795.14,162.85 L798.51,150.30 L801.88,125.20 L805.24,125.20 L808.61,137.37 L811.98,103.79 L815.35,98.82 L818.72,78.26 L822.09,55.55 L825.46,55.55 L828.83,63.78 L832.20,92.75 L835.57,101.89 L838.94,107.45 L842.31,151.98 L845.68,144.97 L849.05,147.90 L852.41,154.61 L855.78,149.82 L859.15,177.10 L862.52,181.70 L865.89,201.02 L869.26,211.24 L872.63,195.54 L876.00,192.17 " fill="none" stroke="#1266d6" stroke-width="2"/>
<text x="64" y="288" font-size="14" font-family="SimSun" fill="#1266d6">RSI</text>
</svg>